<svg width="20" height="20" xmlns="http://www.w3.org/2000/svg">
  <path d="M15.36 19.86H4.64a1.91 1.91 0 0 1-2.02-1.64V4.1a.71.71 0 0 1 1.43 0v14.02a.6.6 0 0 0 .59.3h10.72a.6.6 0 0 0 .6-.3V3.98a.71.71 0 0 1 1.42 0v14.24a1.91 1.91 0 0 1-2.02 1.64Z" fill="#e04545" />
  <path d="M18.92 4.7H1.08a.71.71 0 1 1 0-1.44h17.84a.71.71 0 1 1 0 1.43Z" fill="#e04545" />
  <path d="M13.35 4.7a.71.71 0 0 1-.71-.72V1.95a.37.37 0 0 0-.38-.38H7.74a.37.37 0 0 0-.38.38v2.03a.71.71 0 1 1-1.43 0V1.95a1.8 1.8 0 0 1 1.8-1.8h4.53a1.8 1.8 0 0 1 1.8 1.8v2.03a.71.71 0 0 1-.7.71Z" fill="#e04545" />
</svg>