<svg width="20" height="20" viewBox="0 0 20 20" fill="none" xmlns="http://www.w3.org/2000/svg">
<path d="M15.364 19.8571H4.636C4.15559 19.889 3.68086 19.7384 3.30669 19.4354C2.93252 19.1324 2.68647 18.6994 2.61771 18.2229C2.61771 18.2034 2.61771 18.184 2.61771 18.1657V4.10229C2.61771 3.91285 2.69297 3.73116 2.82692 3.59721C2.96088 3.46325 3.14256 3.388 3.332 3.388C3.52144 3.388 3.70312 3.46325 3.83708 3.59721C3.97103 3.73116 4.04629 3.91285 4.04629 4.10229V18.1234C4.10367 18.2272 4.19056 18.3116 4.29595 18.3659C4.40134 18.4202 4.52049 18.442 4.63829 18.4286H15.364C15.4818 18.442 15.6009 18.4202 15.7063 18.3659C15.8117 18.3116 15.8986 18.2272 15.956 18.1234V3.97829C15.956 3.78885 16.0313 3.60716 16.1652 3.47321C16.2992 3.33925 16.4808 3.264 16.6703 3.264C16.8597 3.264 17.0414 3.33925 17.1754 3.47321C17.3093 3.60716 17.3846 3.78885 17.3846 3.97829V18.1651C17.3846 18.184 17.3846 18.2034 17.3846 18.2223C17.3159 18.6993 17.0696 19.1328 16.6949 19.436C16.3202 19.7392 15.8449 19.8896 15.364 19.8571V19.8571Z" fill="black"/>
<path d="M18.9206 4.69257H1.07943C0.889988 4.69257 0.708307 4.61732 0.574352 4.48336C0.440398 4.34941 0.365143 4.16773 0.365143 3.97829C0.365143 3.78885 0.440398 3.60716 0.574352 3.47321C0.708307 3.33925 0.889988 3.264 1.07943 3.264H18.9206C19.11 3.264 19.2917 3.33925 19.4256 3.47321C19.5596 3.60716 19.6349 3.78885 19.6349 3.97829C19.6349 4.16773 19.5596 4.34941 19.4256 4.48336C19.2917 4.61732 19.11 4.69257 18.9206 4.69257V4.69257Z" fill="black"/>
<path d="M13.3537 4.69257C13.1643 4.69257 12.9826 4.61732 12.8486 4.48336C12.7147 4.34941 12.6394 4.16773 12.6394 3.97829V1.94914C12.64 1.89939 12.6306 1.85003 12.6118 1.80397C12.593 1.7579 12.5652 1.71605 12.53 1.68086C12.4948 1.64568 12.453 1.61788 12.4069 1.59909C12.3608 1.5803 12.3115 1.57089 12.2617 1.57143H7.73829C7.68854 1.57089 7.63918 1.5803 7.59311 1.59909C7.54704 1.61788 7.50519 1.64568 7.47001 1.68086C7.43483 1.71605 7.40703 1.7579 7.38823 1.80397C7.36944 1.85003 7.36004 1.89939 7.36057 1.94914V3.97829C7.36057 4.16773 7.28532 4.34941 7.15136 4.48336C7.01741 4.61732 6.83573 4.69257 6.64629 4.69257C6.45684 4.69257 6.27516 4.61732 6.14121 4.48336C6.00725 4.34941 5.932 4.16773 5.932 3.97829V1.94914C5.9326 1.47027 6.1231 1.01119 6.46172 0.672573C6.80033 0.33396 7.25941 0.143461 7.73829 0.142857H12.2617C12.7406 0.143461 13.1997 0.33396 13.5383 0.672573C13.8769 1.01119 14.0674 1.47027 14.068 1.94914V3.97829C14.068 4.16773 13.9927 4.34941 13.8588 4.48336C13.7248 4.61732 13.5432 4.69257 13.3537 4.69257Z" fill="black"/>
</svg>
