<svg width="13" height="13" viewBox="0 0 13 13" fill="none" xmlns="http://www.w3.org/2000/svg">
<path d="M8.67431 6.92112L12.551 3.04634C13.0377 2.55963 13.0377 1.77428 12.551 1.28757C12.0643 0.80086 11.2789 0.80086 10.7922 1.28757L6.91554 5.16235L3.03982 1.28663C2.55311 0.799915 1.76776 0.799915 1.28105 1.28663C0.794338 1.77334 0.794338 2.55869 1.28105 3.0454L5.15772 6.92017L1.28105 10.795C0.794338 11.2817 0.794338 12.067 1.28105 12.5537C1.7687 13.0404 2.55689 13.0404 3.03982 12.5537L6.91649 8.67895L10.7932 12.5537C11.2799 13.0404 12.0652 13.0404 12.5519 12.5537C13.0349 12.067 13.0349 11.2817 12.5472 10.794L8.67431 6.92112Z" fill="black"/>
</svg>
