<svg width="96" height="96" xmlns="http://www.w3.org/2000/svg">
  <g clip-path="url(#a)">
    <path d="M93.38 29.47 46.14 80.11a8.54 8.54 0 0 1-12.68 0L9.08 53.97a10.1 10.1 0 0 1 0-13.59 8.54 8.54 0 0 1 12.67 0L39.8 59.73 80.7 15.9a8.54 8.54 0 0 1 12.68 0 10.1 10.1 0 0 1 0 13.58Z" fill="#EC9999" />
  </g>
  <g clip-path="url(#b)">
    <path d="M86.93 29.47 39.68 80.11a8.54 8.54 0 0 1-12.67 0L2.62 53.97a10.1 10.1 0 0 1 0-13.59 8.54 8.54 0 0 1 12.68 0l18.05 19.35 40.9-43.84a8.54 8.54 0 0 1 12.67 0 10.1 10.1 0 0 1 0 13.58Z" fill="#222" />
  </g>
  <defs>
    <clipPath id="a">
      <path fill="#fff" transform="translate(6.45)" d="M0 0h89.55v96H0z" />
    </clipPath>
    <clipPath id="b">
      <path fill="#fff" d="M0 0h89.55v96H0z" />
    </clipPath>
  </defs>
</svg>